<?xml version="1.0" standalone="no"?>
<!DOCTYPE svg PUBLIC "-//W3C//DTD SVG 20010904//EN"
 "http://www.w3.org/TR/2001/REC-SVG-20010904/DTD/svg10.dtd">
<svg version="1.0" xmlns="http://www.w3.org/2000/svg"
 width="1400.000000pt" height="1400.000000pt" viewBox="0 0 1400.000000 1400.000000"
 preserveAspectRatio="xMidYMid meet">
<metadata>
Created by potrace 1.14, written by Peter Selinger 2001-2017
</metadata>
<g transform="translate(0.000000,1400.000000) scale(0.100000,-0.100000)"
fill="#000000" stroke="none">
<path d="M6885 9830 l-250 -5 1 -30 c1 -16 5 -66 8 -110 9 -109 15 -192 21
-272 11 -163 16 -221 20 -258 3 -22 7 -85 10 -140 4 -55 8 -120 10 -145 2 -25
7 -85 10 -135 4 -49 9 -108 10 -130 2 -22 6 -80 9 -130 14 -210 26 -358 32
-367 3 -4 0 -8 -6 -8 -7 0 -8 -6 -2 -17 5 -10 10 -43 11 -73 1 -30 4 -68 6
-85 2 -16 6 -79 10 -140 4 -60 9 -126 11 -145 2 -19 6 -75 9 -125 2 -49 7
-112 9 -140 15 -172 19 -227 21 -285 2 -36 4 -65 5 -65 1 0 3 -18 4 -40 9
-141 18 -265 21 -295 2 -20 6 -78 10 -130 3 -52 8 -113 10 -135 3 -22 7 -83
10 -135 3 -52 7 -115 9 -140 2 -25 7 -85 10 -135 10 -141 16 -216 21 -270 2
-27 7 -90 11 -140 6 -97 10 -154 20 -280 6 -79 7 -120 5 -140 -1 -6 -27 -12
-59 -13 -32 -1 -69 -4 -82 -7 -14 -3 -45 -7 -69 -10 -24 -3 -47 -7 -50 -10 -4
-2 -18 -6 -32 -9 -13 -2 -53 -14 -89 -25 -35 -11 -66 -18 -69 -16 -5 6 -41
103 -46 127 -2 9 -37 122 -79 250 -69 214 -88 275 -91 288 -1 3 -4 12 -7 20
-15 40 -41 120 -93 285 -31 99 -60 189 -64 200 -5 11 -13 36 -19 55 -19 63
-163 515 -169 530 -4 8 -7 17 -8 20 -4 18 -157 495 -162 510 -3 8 -7 20 -9 25
-2 10 -78 247 -121 375 -13 41 -25 80 -27 85 -5 25 -39 132 -46 150 -8 18
-122 369 -126 388 -1 4 -3 9 -4 12 -1 3 -3 8 -4 13 -2 4 -11 34 -21 67 -11 33
-20 62 -20 65 -1 3 -5 12 -8 20 -8 19 -56 172 -58 185 -1 6 -7 26 -14 45 -26
68 -155 475 -152 481 1 3 -4 13 -12 22 -7 10 -11 17 -8 17 3 0 -5 29 -18 65
-13 36 -21 65 -19 65 4 0 -23 59 -31 68 -1 2 -22 -6 -46 -17 -48 -23 -408
-171 -424 -175 -24 -6 -169 -68 -178 -76 -4 -4 103 -232 239 -506 135 -274
313 -634 394 -799 81 -165 254 -516 385 -780 424 -858 456 -924 457 -932 0 -4
8 -19 17 -33 9 -14 48 -90 86 -170 39 -80 74 -148 78 -151 5 -3 8 -9 7 -13 0
-3 33 -76 75 -161 42 -85 75 -157 75 -161 -1 -4 2 -10 7 -13 4 -3 22 -35 40
-71 17 -36 68 -139 113 -229 44 -90 79 -165 78 -166 -2 -2 -37 -19 -78 -40
-78 -39 -193 -112 -198 -127 -2 -4 -8 -8 -13 -8 -6 0 -21 -10 -34 -22 -13 -13
-35 -34 -50 -47 l-27 -25 -36 41 c-21 23 -48 56 -62 74 -14 17 -32 39 -40 48
-20 20 -130 148 -156 179 -10 13 -32 38 -47 55 -15 18 -42 49 -60 71 -18 21
-43 50 -56 65 -21 24 -48 55 -154 179 -21 25 -44 50 -50 57 -7 7 -28 32 -49
56 -20 24 -46 55 -58 69 -12 14 -40 47 -63 74 -23 28 -52 60 -64 73 -11 13
-35 42 -53 63 -18 21 -42 50 -53 63 -43 47 -103 116 -137 158 -19 23 -40 47
-45 53 -12 13 -132 152 -155 180 -8 10 -22 26 -30 35 -14 14 -42 47 -145 169
-11 13 -29 34 -40 46 -11 12 -42 48 -70 81 -27 32 -54 63 -60 69 -5 6 -23 27
-40 47 -102 122 -122 144 -140 163 -11 12 -42 48 -70 81 -51 61 -77 91 -115
135 -13 14 -70 81 -129 150 -58 68 -113 132 -121 141 -17 17 -39 44 -119 139
-30 36 -64 75 -75 86 -12 12 -47 53 -80 93 -32 39 -63 71 -69 71 -6 0 -8 3 -5
6 4 3 -1 13 -10 23 -18 18 -30 32 -122 141 -30 35 -66 77 -80 91 -14 15 -39
44 -57 65 -32 40 -55 67 -100 118 l-25 29 -254 -254 -254 -254 34 -30 c30 -27
97 -86 216 -190 25 -22 72 -62 105 -90 50 -42 113 -97 161 -140 6 -5 32 -28
58 -50 27 -22 56 -47 65 -55 29 -24 143 -124 155 -135 6 -6 43 -37 81 -70 39
-33 72 -62 75 -65 3 -3 37 -32 75 -65 39 -32 77 -66 86 -75 9 -8 29 -26 45
-39 61 -52 240 -206 264 -228 14 -13 36 -32 50 -44 69 -58 125 -106 150 -129
15 -14 39 -34 51 -45 123 -104 175 -149 179 -154 3 -4 21 -19 40 -35 19 -16
62 -52 95 -81 33 -29 103 -90 155 -135 52 -45 118 -102 145 -126 28 -24 60
-51 71 -61 61 -52 140 -121 161 -141 12 -13 23 -21 23 -19 0 3 15 -10 33 -27
18 -17 57 -51 87 -76 29 -25 65 -56 80 -70 14 -14 48 -43 76 -65 27 -21 51
-42 54 -46 3 -3 43 -39 89 -78 46 -40 89 -77 96 -84 6 -7 34 -30 60 -52 50
-41 116 -99 145 -125 8 -8 31 -28 50 -44 44 -36 168 -145 193 -169 18 -18 17
-19 -19 -60 -21 -23 -41 -44 -44 -47 -16 -12 -110 -161 -140 -220 -18 -36 -34
-66 -35 -68 -4 -4 -115 51 -360 177 -99 51 -234 121 -300 155 -66 33 -123 65
-127 71 -4 5 -8 6 -8 1 0 -5 -6 -4 -12 1 -7 6 -121 66 -253 133 -229 117 -455
233 -705 362 -63 33 -121 65 -127 70 -7 6 -13 7 -13 3 0 -4 -6 -3 -12 3 -11 8
-197 105 -503 260 -49 26 -93 51 -97 57 -4 5 -8 6 -8 2 0 -5 -15 0 -32 11 -33
20 -283 149 -606 312 -95 49 -179 93 -187 100 -8 6 -20 13 -27 14 -7 1 -22 7
-33 13 -107 57 -723 373 -729 373 -6 0 -19 -29 -71 -155 -20 -49 -46 -110 -57
-135 -11 -25 -23 -54 -28 -65 -4 -11 -12 -31 -18 -45 -6 -14 -25 -59 -42 -100
-17 -41 -40 -93 -50 -115 -10 -22 -17 -41 -15 -43 3 -3 367 -129 390 -135 48
-13 243 -82 252 -90 7 -5 13 -7 13 -4 0 3 35 -7 78 -22 42 -15 79 -28 82 -29
6 -1 38 -11 60 -19 8 -4 20 -7 25 -9 6 -1 129 -44 275 -94 146 -50 272 -92
280 -95 8 -2 49 -16 90 -30 41 -14 82 -28 90 -30 8 -2 134 -45 280 -96 146
-50 274 -93 285 -96 11 -2 29 -9 40 -14 11 -4 67 -24 125 -43 58 -19 305 -103
550 -186 245 -83 492 -167 550 -186 58 -19 112 -38 120 -41 8 -3 17 -7 20 -7
3 -1 11 -5 18 -9 6 -5 12 -6 12 -3 0 3 17 -2 37 -10 20 -9 44 -18 52 -19 14
-4 421 -142 429 -146 1 -1 5 -2 10 -4 4 -1 14 -4 22 -8 8 -3 47 -15 85 -27 39
-11 78 -25 87 -31 10 -5 25 -9 34 -9 11 0 14 -5 9 -17 -16 -42 -45 -134 -48
-150 -1 -10 -6 -24 -10 -30 -5 -7 -6 -13 -3 -13 2 0 1 -14 -4 -32 -9 -30 -22
-137 -25 -203 l-1 -30 -64 0 c-36 0 -69 2 -73 3 -4 2 -40 5 -80 7 -40 3 -101
7 -137 10 -36 3 -99 7 -140 10 -41 3 -100 8 -130 10 -30 3 -94 8 -142 10 -48
3 -108 7 -135 10 -26 2 -84 7 -128 10 -44 3 -107 8 -140 11 -33 3 -89 7 -125
10 -36 2 -94 6 -130 9 -36 2 -96 7 -135 9 -38 3 -101 8 -140 11 -186 14 -224
17 -275 20 -30 2 -86 7 -125 10 -67 5 -121 9 -285 20 -129 9 -195 14 -195 15
0 1 -29 3 -65 5 -36 2 -96 7 -135 10 -81 7 -158 13 -270 20 -44 3 -102 8 -130
10 -27 2 -84 7 -125 9 -41 3 -104 8 -140 11 -88 7 -218 16 -420 30 -36 2 -65
5 -65 5 0 1 -36 3 -80 6 -79 5 -150 11 -150 13 0 1 -43 4 -95 6 -52 3 -117 7
-145 10 -27 2 -88 7 -135 11 -47 3 -88 8 -92 11 -5 2 -9 1 -9 -4 -5 -27 -4
-353 1 -354 3 -1 2675 -2 5938 -3 l5932 -2 1 76 c0 112 0 253 0 269 -1 10 -18
12 -83 7 -46 -3 -112 -8 -148 -11 -36 -3 -96 -7 -135 -9 -38 -3 -100 -8 -137
-11 -119 -9 -194 -15 -290 -21 -107 -7 -173 -12 -173 -14 0 -1 -34 -3 -75 -5
-91 -5 -173 -11 -260 -19 -36 -4 -101 -8 -145 -11 -44 -2 -105 -6 -135 -9 -30
-3 -89 -8 -130 -11 -41 -3 -102 -7 -135 -10 -33 -2 -94 -7 -135 -10 -41 -3
-113 -8 -160 -12 -47 -3 -109 -6 -137 -7 -29 0 -53 -3 -53 -6 0 -3 -24 -5 -53
-6 -46 -1 -102 -5 -282 -19 -27 -3 -84 -7 -125 -10 -41 -2 -100 -7 -130 -10
-30 -2 -93 -7 -140 -10 -47 -3 -110 -7 -140 -10 -59 -5 -177 -14 -275 -20 -33
-2 -92 -6 -132 -10 -40 -3 -98 -8 -130 -10 -113 -7 -229 -16 -278 -21 -27 -2
-88 -7 -135 -9 -47 -3 -110 -8 -140 -11 -30 -3 -82 -7 -115 -9 -33 -2 -60 -4
-60 -5 0 -1 -39 -3 -87 -6 l-88 -4 -1 52 c-1 29 -3 64 -5 78 -2 14 -5 42 -7
63 -2 20 -7 40 -10 44 -4 3 -7 15 -7 26 0 25 -40 159 -52 174 -7 9 0 17 24 27
26 12 227 78 273 90 6 2 17 6 25 9 8 3 130 42 270 87 140 45 262 84 270 87 20
8 21 8 55 18 17 4 35 10 40 14 6 3 15 6 20 7 6 1 75 23 155 49 80 26 188 60
240 77 52 16 104 33 115 38 22 10 180 60 207 65 9 2 25 8 35 13 10 6 21 10 26
10 7 1 278 88 307 99 8 3 20 7 25 8 6 0 17 4 25 7 21 9 123 42 136 44 6 1 44
13 85 27 131 44 635 207 641 207 4 0 19 5 35 12 15 6 33 12 38 14 18 4 209 65
225 71 8 4 17 7 20 8 15 4 217 68 230 73 8 3 18 6 23 7 4 2 9 4 12 5 3 1 8 3
13 4 4 1 13 5 20 9 6 5 12 6 12 3 0 -2 24 5 53 15 28 11 59 22 67 24 8 1 60
18 115 35 55 18 100 32 100 31 0 -2 25 7 55 19 30 12 55 21 55 20 0 -1 7 1 15
4 8 3 88 28 177 57 89 29 167 55 174 60 9 5 9 15 -3 41 -9 18 -49 114 -88 213
-68 170 -83 205 -116 282 -8 17 -14 33 -14 36 0 3 -9 26 -19 50 l-20 46 -323
-160 c-178 -89 -375 -186 -438 -217 -63 -31 -118 -61 -121 -65 -3 -5 -9 -8
-13 -7 -3 0 -158 -75 -344 -167 -185 -92 -339 -168 -342 -168 -3 0 -12 -5 -20
-10 -15 -9 -331 -168 -340 -170 -8 -2 -193 -95 -210 -105 -8 -5 -251 -126
-540 -269 -289 -142 -707 -349 -929 -460 -222 -110 -410 -201 -417 -201 -8 0
-14 -4 -14 -9 0 -5 -24 -19 -52 -32 -29 -13 -56 -25 -59 -27 -4 -2 -25 32 -46
75 -45 88 -65 126 -73 133 -3 3 -24 30 -45 60 -22 30 -55 71 -72 90 -18 19
-33 37 -33 41 0 4 30 33 68 65 37 32 69 61 72 64 3 3 52 45 110 95 58 49 107
92 110 95 3 3 34 30 70 60 36 30 67 58 70 61 3 3 55 48 115 99 61 52 115 99
121 105 6 6 35 31 64 56 47 39 80 68 166 144 12 11 40 34 61 51 21 18 50 42
64 55 14 13 47 42 74 64 26 22 55 47 64 56 9 8 63 55 121 105 57 49 112 96
121 104 49 43 71 62 144 126 45 38 89 76 99 84 9 8 25 22 35 30 96 85 186 163
230 200 29 25 58 50 65 55 6 6 42 37 81 70 38 33 76 67 85 75 9 8 39 34 66 57
27 23 60 51 74 63 32 27 125 109 154 135 12 11 44 38 70 60 26 22 58 49 70 60
55 49 96 84 156 134 36 30 74 64 86 75 12 12 32 30 45 41 107 89 216 182 224
191 6 6 42 38 80 70 80 68 131 112 155 134 8 8 39 35 68 58 29 24 52 48 52 53
0 4 -112 120 -248 258 -203 204 -250 247 -262 237 -8 -6 -51 -54 -95 -106 -44
-52 -82 -97 -85 -100 -3 -3 -32 -36 -65 -75 -33 -38 -64 -75 -70 -81 -5 -6
-29 -33 -52 -60 -23 -27 -51 -60 -62 -74 -12 -14 -39 -45 -61 -70 -22 -25 -47
-54 -57 -66 -72 -85 -102 -120 -130 -150 -18 -19 -33 -37 -33 -40 0 -3 -10
-15 -22 -28 -13 -13 -42 -45 -65 -72 -23 -27 -50 -58 -60 -70 -39 -45 -94
-110 -110 -130 -10 -12 -41 -48 -70 -80 -28 -32 -70 -81 -93 -108 -23 -27 -47
-54 -53 -61 -7 -7 -24 -28 -39 -47 -15 -19 -40 -48 -55 -64 -15 -17 -39 -44
-53 -60 -31 -37 -141 -165 -155 -180 -14 -15 -73 -84 -270 -314 -92 -107 -181
-211 -198 -231 -18 -19 -50 -57 -72 -84 -22 -26 -47 -55 -56 -64 -9 -9 -42
-47 -74 -86 -32 -38 -69 -81 -81 -95 -12 -14 -40 -46 -61 -71 -50 -58 -62 -72
-98 -112 -16 -19 -48 -56 -70 -83 -22 -26 -47 -55 -55 -64 -8 -9 -37 -43 -65
-75 -27 -33 -56 -67 -65 -75 -8 -8 -32 -35 -52 -60 -20 -25 -47 -57 -60 -71
-13 -15 -39 -46 -59 -70 -21 -24 -48 -56 -60 -70 -13 -14 -42 -47 -64 -73 -22
-25 -50 -58 -63 -72 l-23 -26 -27 23 c-15 13 -29 27 -32 30 -39 43 -257 183
-305 195 -24 6 -23 9 117 283 78 152 178 346 221 431 78 154 178 349 442 865
76 149 190 374 254 500 64 127 118 232 121 235 3 3 46 86 96 185 49 99 157
311 239 470 82 160 183 359 225 442 43 84 83 160 90 168 7 8 10 15 8 15 -3 0
27 62 66 138 39 76 103 200 141 277 39 77 74 143 80 147 7 5 -45 36 -75 43 -3
1 -23 9 -45 19 -22 10 -78 33 -125 53 -47 19 -113 48 -148 64 -35 16 -65 29
-68 29 -2 0 -47 18 -100 41 -53 22 -97 39 -99 37 -7 -7 -263 -769 -265 -790
-1 -4 -12 -32 -25 -63 -14 -30 -23 -55 -21 -55 3 0 -5 -26 -16 -57 -11 -32
-76 -224 -144 -428 -69 -203 -127 -377 -131 -385 -3 -8 -7 -19 -9 -25 -5 -21
-176 -531 -184 -550 -5 -11 -25 -69 -45 -130 -20 -60 -39 -117 -42 -125 -3 -8
-7 -19 -8 -25 -2 -5 -26 -77 -55 -160 -28 -82 -53 -157 -55 -165 -4 -14 -118
-354 -131 -390 -3 -8 -5 -16 -6 -17 0 -1 -45 -134 -99 -295 -55 -161 -116
-345 -137 -408 -20 -63 -41 -118 -47 -122 -5 -4 -7 -8 -3 -8 3 0 -11 -48 -31
-107 -27 -78 -41 -107 -52 -104 -8 2 -50 15 -94 28 -44 14 -91 26 -105 29 -14
2 -36 7 -49 10 -22 5 -48 8 -166 19 -16 2 -33 3 -37 4 -8 1 -6 141 2 141 3 0
5 24 6 53 1 50 11 195 18 267 2 19 7 82 11 140 3 57 8 127 10 155 2 27 7 86
10 130 3 44 8 109 11 145 3 36 7 92 9 125 2 33 7 98 10 145 4 47 9 108 10 135
4 58 12 160 20 260 9 114 22 294 30 420 3 39 7 93 9 120 6 66 17 216 21 270 1
23 5 47 9 54 4 6 2 11 -4 11 -6 0 -9 4 -5 9 3 5 8 40 10 78 3 37 7 93 10 123
9 117 16 217 20 275 4 58 9 127 20 270 4 39 8 102 10 140 2 39 5 70 5 70 1 0
3 27 5 60 1 33 6 98 10 145 8 90 9 115 20 275 8 116 12 160 14 160 1 0 4 41 7
90 2 50 6 110 8 135 2 25 7 91 11 148 l6 102 -43 1 c-24 0 -72 1 -108 2 -36 1
-178 0 -315 -3z"/>
</g>
</svg>
