<?xml version="1.0" encoding="UTF-8" standalone="no"?>
<svg
   width="1024"
   zoomAndPan="magnify"
   viewBox="0 0 768 383.99998"
   height="512"
   preserveAspectRatio="xMidYMid"
   version="1.0"
   id="svg398"
   sodipodi:docname="sensational-kids.svg"
   inkscape:version="1.2.2 (732a01da63, 2022-12-09)"
   xmlns:inkscape="http://www.inkscape.org/namespaces/inkscape"
   xmlns:sodipodi="http://sodipodi.sourceforge.net/DTD/sodipodi-0.dtd"
   xmlns="http://www.w3.org/2000/svg"
   xmlns:svg="http://www.w3.org/2000/svg">
  <sodipodi:namedview
     id="namedview400"
     pagecolor="#ffffff"
     bordercolor="#000000"
     borderopacity="0.25"
     inkscape:showpageshadow="2"
     inkscape:pageopacity="0.0"
     inkscape:pagecheckerboard="0"
     inkscape:deskcolor="#d1d1d1"
     showgrid="false"
     inkscape:zoom="0.36557421"
     inkscape:cx="16.412536"
     inkscape:cy="489.64067"
     inkscape:window-width="1366"
     inkscape:window-height="697"
     inkscape:window-x="-8"
     inkscape:window-y="-8"
     inkscape:window-maximized="1"
     inkscape:current-layer="svg398" />
  <defs
     id="defs10">
    <g
       id="g2" />
    <clipPath
       id="1ccd6004d2">
      <path
         d="M 76.753906,156.88672 H 299.50391 v 111.75 H 76.753906 Z m 0,0"
         clip-rule="nonzero"
         id="path4" />
    </clipPath>
    <clipPath
       id="b9bb596a78">
      <path
         d="m 163,244 h 50 v 24.63672 h -50 z m 0,0"
         clip-rule="nonzero"
         id="path7" />
    </clipPath>
  </defs>
  <g
     clip-path="url(#1ccd6004d2)"
     id="g14"
     transform="matrix(1.9999998,0,0,2.0000041,15.03294,-188.68355)">
    <path
       fill="#f3e198"
       d="m 164.69531,268.41406 c 0.0234,-3.07812 0.64063,-6.00781 1.75391,-8.6914 l -83.523439,-28.35938 5.246094,-12.44141 78.476565,40.35157 c 1.14062,-2.65625 2.77343,-5.03907 4.7539,-7.07422 l -66.77343,-57.8125 9.52734,-9.5625 57.58984,67 c 2.10547,-2.0586 4.60547,-3.75 7.375,-4.91406 l -39.125,-79.26954 12.47266,-5.08984 27.05078,84.20703 c 2.59766,-1.01562 5.39453,-1.61328 8.36328,-1.63672 l -6.48437,-88.23437 h 13.46484 l -6.50781,88.23437 c 3.0664,0.0234 5.98828,0.64453 8.66015,1.76172 l 28.26172,-83.8125 12.39844,5.26563 -40.21484,78.72265 c 2.64843,1.14063 5.02343,2.78125 7.05468,4.76563 l 57.61329,-66.97266 9.52734,9.5586 -66.79688,57.76171 c 2.05469,2.11329 3.73829,4.6211 4.90235,7.40235 l 79.02344,-39.23828 5.07031,12.51562 -83.92188,27.16797 c 1.01563,2.60938 1.60938,5.41406 1.63282,8.39453 L 299.5,261.88281 v 6.75391 H 76.761719 v -6.75391 z m 0,0"
       fill-opacity="1"
       fill-rule="nonzero"
       id="path12" />
  </g>
  <g
     clip-path="url(#b9bb596a78)"
     id="g18"
     transform="matrix(1.9999998,0,0,2.0000041,15.03294,-188.68355)">
    <path
       fill="#fcc22d"
       d="m 212.48437,268.63672 h -48.70703 c 0,-13.48438 10.91407,-24.4336 24.35157,-24.4336 13.4414,0 24.35546,10.94922 24.35546,24.4336 z m 0,0"
       fill-opacity="1"
       fill-rule="nonzero"
       id="path16" />
  </g>
  <g
     fill="#00ffff"
     fill-opacity="1"
     id="g26"
     transform="matrix(1.9999998,0,0,2.0000041,15.03294,-188.68355)">
    <g
       transform="translate(39.871446,242.03402)"
       id="g24">
      <g
         id="g22">
        <path
           d="m 8.097656,-13.992188 c 4.328125,-8.273437 4.167969,-15.070312 -1.628906,-18.105468 -9.851562,-5.15625 -14.554688,14.386718 -17.433594,12.878906 -0.726562,-0.382812 -0.09766,-2.375 1.28125,-5.011719 1.953125,-3.730469 5.066406,-7.210937 8.234375,-9.117187 l -11.019531,-7.472656 c -2.984375,2.15625 -6.972656,7.40625 -8.902344,11.09375 -4.09375,7.824218 -4.675781,14.855468 1.203125,17.933593 10.21875,5.34375 15.257813,-13.863281 17.976563,-12.441406 0.6875,0.359375 0.0625,2.046875 -1.316406,4.683594 -2.671876,5.109375 -6.722657,9.394531 -10.703126,11.078125 l 13.054688,6.835937 c 3.179688,-2.726562 7.367188,-8.75 9.253906,-12.355469 z m 0,0"
           id="path20" />
      </g>
    </g>
  </g>
  <g
     fill="#00ffff"
     fill-opacity="1"
     id="g34"
     transform="matrix(1.9999998,0,0,2.0000041,15.03294,-188.68355)">
    <g
       transform="translate(54.713687,214.14986)"
       id="g32">
      <g
         id="g30">
        <path
           d="m 9.3125,-10.84375 c 2.304688,-2.960938 3.960938,-6.429688 4.523438,-8.714844 l -7.101563,-5.179687 c -0.492187,2.34375 -1.4375,4.449219 -3.460937,7.046875 -2.050782,2.636718 -4.328126,4.519531 -5.429688,3.777344 L 7.257812,-26.011719 C 7.0625,-26.28125 6.679688,-26.753906 5.917969,-27.34375 c -5.488281,-4.273438 -11.695313,-3.597656 -16.476563,2.539062 -4.636718,5.957032 -4.125,12.675782 1.796875,17.289063 C -2.875,-2.933594 3.859375,-3.839844 9.3125,-10.84375 Z m -12.871094,-4.105469 c -1.335937,-1.558593 -1.050781,-3.195312 -0.035156,-4.492187 1.179688,-1.519532 2.84375,-2.019532 4.335938,-1.03125 z m 0,0"
           id="path28" />
      </g>
    </g>
  </g>
  <g
     fill="#00ffff"
     fill-opacity="1"
     id="g42"
     transform="matrix(1.9999998,0,0,2.0000041,15.03294,-188.68355)">
    <g
       transform="translate(70.176992,194.15282)"
       id="g40">
      <g
         id="g38">
        <path
           d="m 2.464844,-13.113281 c -2.21875,-2 -2.4882815,-4.179688 -1.042969,-5.515625 1.78125,-1.644532 3.480469,-0.410156 4.832031,1.457031 l 5.007813,6.769531 7.832031,-7.230468 -9.558594,-10.421876 c -4.128906,-4.46875 -7.875,-5.558593 -11.875,-1.863281 C -5.5,-27 -4.496094,-22.132812 -1.355469,-18.058594 l -0.4375,0.402344 -5.292969,-6.945312 -7.699218,7.109374 15.523437,16.808594 7.597657,-7.015625 z m 0,0"
           id="path36" />
      </g>
    </g>
  </g>
  <g
     fill="#00ffff"
     fill-opacity="1"
     id="g50"
     transform="matrix(1.9999998,0,0,2.0000041,15.03294,-188.68355)">
    <g
       transform="translate(89.637801,176.2693)"
       id="g48">
      <g
         id="g46">
        <path
           d="m 9.949219,-5.78125 c 6.519531,-4.324219 9.082031,-8.992188 6.523437,-12.84375 -4.351562,-6.554688 -15.160156,2.980469 -15.941406,1.796875 -0.4570312,-0.6875 0.597656,-1.496094 2.503906,-2.761719 2.859375,-1.898437 6.160156,-2.882812 8.230469,-2.992187 L 5.902344,-30.5 c -3.050782,0.871094 -5.9726565,2.261719 -8.601563,4.007812 -6.519531,4.328126 -8.636719,8.75 -6.382812,12.144532 4.476562,6.75 14.828125,-3.472656 15.816406,-1.984375 0.53125,0.800781 -0.585937,1.597656 -2.796875,3.066406 -2.25,1.492187 -6.355469,3.171875 -9.882812,3.644531 l 5.792968,8.730469 C 2.605469,-1.785156 7.507812,-4.160156 9.949219,-5.78125 Z m 0,0"
           id="path44" />
      </g>
    </g>
  </g>
  <g
     fill="#00ffff"
     fill-opacity="1"
     id="g58"
     transform="matrix(1.9999998,0,0,2.0000041,15.03294,-188.68355)">
    <g
       transform="translate(109.4724,162.88373)"
       id="g56">
      <g
         id="g54">
        <path
           d="m 7.792969,-2.757812 c 3.171875,-1.425782 5.378906,-5.332032 3.792969,-9.183594 l 0.667968,-0.300782 1.722656,5.949219 11.308594,-5.09375 -3.945312,-8.761719 -2.710938,1.222657 -0.570312,-2.605469 c -1.507813,-7.25 -9.125,-8.335938 -17.59375,-4.523438 -3.046875,1.371094 -5.570313,3.011719 -7.804688,5.070313 l 3.699219,8.21875 c 1.421875,-1.742187 3.64453125,-3.496094 5.816406,-4.472656 3.628907,-1.636719 7.152344,-1.164063 8.015625,0.753906 l 0.226563,0.5 -0.582031,0.265625 c -1.171876,-1.480469 -3.9375,-1.941406 -7.234376,-0.457031 -4.714843,2.121093 -6.660156,6.160156 -4.875,10.125 1.992188,4.421875 5.519532,5.34375 10.066407,3.292969 z m 1.25,-9.144532 c -1.792969,0.808594 -3.066407,0.878906 -3.367188,0.210938 -0.320312,-0.707032 0.597657,-1.570313 2.390625,-2.378906 1.796875,-0.808594 3.089844,-0.941407 3.410156,-0.230469 0.300782,0.667969 -0.636718,1.589843 -2.433593,2.398437 z m 0,0"
           id="path52" />
      </g>
    </g>
  </g>
  <g
     fill="#00ffff"
     fill-opacity="1"
     id="g66"
     transform="matrix(1.9999998,0,0,2.0000041,15.03294,-188.68355)">
    <g
       transform="translate(134.83378,151.77778)"
       id="g64">
      <g
         id="g62">
        <path
           d="m 12.699219,-2.851562 c 2.113281,-0.59375 4.136719,-1.683594 5.582031,-2.804688 l -2.660156,-9.472656 c -0.914063,0.640625 -1.890625,1.054687 -2.683594,1.277344 -2.203125,0.617187 -3.035156,-0.144532 -3.269531,-0.980469 l -0.1875,-0.664063 5.816406,-1.632812 -2.84375,-10.132813 -5.816406,1.632813 L 4.707031,-32.5 l -6.035156,1.695312 c 1.175781,4.183594 0.386719,7.304688 -4.679687,8.726563 l 2.84375,10.132813 3.4375,-0.964844 1.632812,5.816406 c 0.777344,2.773438 2.90625,6.457031 10.792969,4.242188 z m 0,0"
           id="path60" />
      </g>
    </g>
  </g>
  <g
     fill="#00ffff"
     fill-opacity="1"
     id="g74"
     transform="matrix(1.9999998,0,0,2.0000041,15.03294,-188.68355)">
    <g
       transform="translate(154.18721,146.51173)"
       id="g72">
      <g
         id="g70">
        <path
           d="m 4.023438,-25.003906 c 3.746093,-0.613282 5.425781,-2.832032 4.988281,-5.496094 -0.429688,-2.621094 -2.71875,-4.148438 -6.464844,-3.535156 -3.703125,0.605468 -5.433594,2.792968 -5.003906,5.410156 0.433593,2.664062 2.777343,4.230469 6.480469,3.621094 z M 13.636719,-2.230469 9.941406,-24.8125 -3.425781,-22.625 -1.722656,-12.238281 2.203125,-12.878906 4.199219,-0.6875 Z m 0,0"
           id="path68" />
      </g>
    </g>
  </g>
  <g
     fill="#00ffff"
     fill-opacity="1"
     id="g82"
     transform="matrix(1.9999998,0,0,2.0000041,15.03294,-188.68355)">
    <g
       transform="translate(168.6586,143.7167)"
       id="g80">
      <g
         id="g78">
        <path
           d="m 13.652344,0.292969 c 8.230468,-0.2343752 13.042968,-4.90625 12.824218,-12.5 C 26.257812,-19.800781 21.1875,-24.1875 12.953125,-23.949219 4.765625,-23.714844 0,-19.042969 0.21875,-11.453125 0.4375,-3.859375 5.464844,0.53125 13.652344,0.292969 Z m -0.300782,-10.335938 c -2.925781,0.082031 -4.5,-0.558593 -4.53125,-1.65625 -0.03125,-1.097656 1.5,-1.875 4.429688,-1.957031 3.019531,-0.08594 4.59375,0.597656 4.625,1.695312 0.03125,1.101563 -1.503906,1.832032 -4.523438,1.917969 z m 0,0"
           id="path76" />
      </g>
    </g>
  </g>
  <g
     fill="#00ffff"
     fill-opacity="1"
     id="g90"
     transform="matrix(1.9999998,0,0,2.0000041,15.03294,-188.68355)">
    <g
       transform="translate(195.44774,142.91932)"
       id="g88">
      <g
         id="g86">
        <path
           d="m 11.710938,-6.398438 c 0.140624,-2.980468 1.660156,-4.570312 3.605468,-4.296874 2.402344,0.335937 2.523438,2.433593 1.933594,4.660156 L 15.179688,2.132812 25.738281,3.613281 27.75,-10.382812 C 28.597656,-16.410156 27.066406,-20 21.675781,-20.753906 c -4.261719,-0.597656 -7.390625,3.257812 -8.554687,8.269531 l -0.589844,-0.08203 2.023438,-8.496094 -10.378907,-1.457031 -3.179687,22.660156 10.242187,1.4375 z m 0,0"
           id="path84" />
      </g>
    </g>
  </g>
  <g
     fill="#00ffff"
     fill-opacity="1"
     id="g98"
     transform="matrix(1.9999998,0,0,2.0000041,15.03294,-188.68355)">
    <g
       transform="translate(221.48203,146.47447)"
       id="g96">
      <g
         id="g94">
        <path
           d="m 7.636719,3.160156 c 3.3125,1.058594 7.5625,-0.367187 8.964843,-4.292968 l 0.695313,0.222656 -2.695313,5.578125 11.8125,3.773437 2.925782,-9.152344 -2.832032,-0.90625 1.316407,-2.316406 c 3.726562,-6.398437 -1.207031,-12.300781 -10.058594,-15.128906 -3.179687,-1.015625 -6.152344,-1.488281 -9.191406,-1.449219 l -2.746094,8.585938 c 2.226563,-0.34375 5.050781,-0.164063 7.316406,0.5625 3.792969,1.210937 6.097657,3.917969 5.457031,5.921875 l -0.167968,0.523437 -0.609375,-0.195312 c 0.121093,-1.882813 -1.628907,-4.074219 -5.070313,-5.175781 -4.925781,-1.574219 -9.074218,0.128906 -10.398437,4.269531 -1.476563,4.621093 0.53125,7.664062 5.28125,9.179687 z m 7.046875,-5.960937 c -1.875,-0.597657 -2.867188,-1.398438 -2.644532,-2.09375 0.234376,-0.742188 1.496094,-0.773438 3.367188,-0.171875 1.875,0.597656 2.925781,1.367187 2.691406,2.105468 -0.222656,0.699219 -1.539062,0.757813 -3.414062,0.160157 z m 0,0"
           id="path92" />
      </g>
    </g>
  </g>
  <g
     fill="#00ffff"
     fill-opacity="1"
     id="g106"
     transform="matrix(1.9999998,0,0,2.0000041,15.03294,-188.68355)">
    <g
       transform="translate(247.92303,155.38322)"
       id="g104">
      <g
         id="g102">
        <path
           d="m 14.074219,-4.941406 10.507812,-18.816406 -9.867187,-4.714844 -13.804688,28.90625 12.511719,5.976562 4.535156,-9.496094 z m 0,0"
           id="path100" />
      </g>
    </g>
  </g>
  <g
     fill="#00ffff"
     fill-opacity="1"
     id="g112"
     transform="matrix(1.9999998,0,0,2.0000041,15.03294,-188.68355)">
    <g
       transform="translate(262.20912,162.3691)"
       id="g110">
      <g
         id="g108" />
    </g>
  </g>
  <g
     fill="#00ffff"
     fill-opacity="1"
     id="g120"
     transform="matrix(1.9999998,0,0,2.0000041,15.03294,-188.68355)">
    <g
       transform="translate(271.17033,166.77154)"
       id="g118">
      <g
         id="g116">
        <path
           d="m 15.136719,0.09375 c 1.378906,-2.582031 3.554687,-3.726562 5.5,-2.207031 3.464843,2.703125 -1.523438,9.085937 -6.644531,13.042969 l 10.421874,8.140624 C 32.46875,10.84375 34.5625,2.433594 28.683594,-2.15625 c -2.234375,-1.746094 -5.128906,-1.164062 -6.875,-0.785156 L 21.777344,-3.71875 44.492188,-5.894531 31.65625,-15.921875 20,-5.980469 19.53125,-6.347656 29.636719,-17.5 20.726562,-24.457031 1.011719,0.789062 l 9.519531,7.4375 z m 0,0"
           id="path114" />
      </g>
    </g>
  </g>
  <g
     fill="#00ffff"
     fill-opacity="1"
     id="g128"
     transform="matrix(1.9999998,0,0,2.0000041,15.03294,-188.68355)">
    <g
       transform="translate(295.80025,186.79038)"
       id="g126">
      <g
         id="g124">
        <path
           d="m 22.917969,-10.769531 c 2.621093,2.75 5.402343,2.882812 7.355469,1.019531 1.921874,-1.832031 1.890624,-4.582031 -0.726563,-7.332031 -2.589844,-2.71875 -5.367187,-2.914063 -7.289063,-1.085938 -1.957031,1.863281 -1.925781,4.679688 0.660157,7.398438 z M 9.53125,10.007812 l 16.566406,-15.78125 -9.339844,-9.808593 -7.621093,7.257812 2.746093,2.882813 -8.949218,8.523437 z m 0,0"
           id="path122" />
      </g>
    </g>
  </g>
  <g
     fill="#00ffff"
     fill-opacity="1"
     id="g136"
     transform="matrix(1.9999998,0,0,2.0000041,15.03294,-188.68355)">
    <g
       transform="translate(306.27043,197.08798)"
       id="g134">
      <g
         id="g132">
        <path
           d="m 4.898438,7.976562 c 2.433593,3.378907 6.84375,4.488282 11.679687,1.964844 L 16.925781,10.425781 10,13.886719 l 6.125,8.503906 25.992188,-18.71875 -6.496094,-9.023437 -13.296875,12 -0.375,-0.519532 C 26.542969,2.089844 27.121094,-2.667969 24.578125,-6.195312 21.476562,-10.503906 15.730469,-10.652344 9.605469,-6.238281 3.476562,-1.828125 1.796875,3.667969 4.898438,7.976562 Z M 15.726562,5.707031 C 14.199219,3.589844 13.828125,2.054688 14.757812,1.386719 15.683594,0.714844 17.023438,1.558594 18.546875,3.671875 20.019531,5.714844 20.472656,7.363281 19.542969,8.03125 18.613281,8.699219 17.195312,7.75 15.726562,5.707031 Z m 0,0"
           id="path130" />
      </g>
    </g>
  </g>
  <g
     fill="#00ffff"
     fill-opacity="1"
     id="g144"
     transform="matrix(1.9999998,0,0,2.0000041,15.03294,-188.68355)">
    <g
       transform="translate(322.57553,219.95082)"
       id="g142">
      <g
         id="g140">
        <path
           d="m 4.476562,10.597656 c 3.472657,7.015625 7.777344,10.144532 11.917969,8.09375 C 23.449219,15.203125 15.355469,3.277344 16.625,2.648438 c 0.738281,-0.363282 1.410156,0.785156 2.425781,2.835937 1.519531,3.074219 2.078125,6.476563 1.925781,8.542969 L 29.511719,9.703125 C 29.03125,6.570312 28.023438,3.496094 26.621094,0.664062 23.152344,-6.347656 19.03125,-9.003906 15.378906,-7.199219 8.121094,-3.609375 16.953125,7.949219 15.351562,8.742188 14.492188,9.167969 13.839844,7.957031 12.664062,5.578125 11.46875,3.160156 10.320312,-1.121094 10.292969,-4.683594 L 0.902344,-0.0390625 C 1.441406,2.808594 3.179688,7.972656 4.476562,10.597656 Z m 0,0"
           id="path138" />
      </g>
    </g>
  </g>
  <g
     fill="#ff00ff"
     fill-opacity="1"
     id="g152"
     transform="matrix(1.9999998,0,0,2.0000041,15.03294,-188.68355)">
    <g
       transform="translate(41.587736,242.03402)"
       id="g150">
      <g
         id="g148">
        <path
           d="m 8.097656,-13.992188 c 4.328125,-8.273437 4.167969,-15.070312 -1.628906,-18.105468 -9.851562,-5.15625 -14.554688,14.386718 -17.433594,12.878906 -0.726562,-0.382812 -0.09766,-2.375 1.28125,-5.011719 1.953125,-3.730469 5.066406,-7.210937 8.234375,-9.117187 l -11.019531,-7.472656 c -2.984375,2.15625 -6.972656,7.40625 -8.902344,11.09375 -4.09375,7.824218 -4.675781,14.855468 1.203125,17.933593 10.21875,5.34375 15.257813,-13.863281 17.976563,-12.441406 0.6875,0.359375 0.0625,2.046875 -1.316406,4.683594 -2.671876,5.109375 -6.722657,9.394531 -10.703126,11.078125 l 13.054688,6.835937 c 3.179688,-2.726562 7.367188,-8.75 9.253906,-12.355469 z m 0,0"
           id="path146" />
      </g>
    </g>
  </g>
  <g
     fill="#ff00ff"
     fill-opacity="1"
     id="g160"
     transform="matrix(1.9999998,0,0,2.0000041,15.03294,-188.68355)">
    <g
       transform="translate(56.429977,214.14986)"
       id="g158">
      <g
         id="g156">
        <path
           d="m 9.3125,-10.84375 c 2.304688,-2.960938 3.960938,-6.429688 4.523438,-8.714844 l -7.101563,-5.179687 c -0.492187,2.34375 -1.4375,4.449219 -3.460937,7.046875 -2.050782,2.636718 -4.328126,4.519531 -5.429688,3.777344 L 7.257812,-26.011719 C 7.0625,-26.28125 6.679688,-26.753906 5.917969,-27.34375 c -5.488281,-4.273438 -11.695313,-3.597656 -16.476563,2.539062 -4.636718,5.957032 -4.125,12.675782 1.796875,17.289063 C -2.875,-2.933594 3.859375,-3.839844 9.3125,-10.84375 Z m -12.871094,-4.105469 c -1.335937,-1.558593 -1.050781,-3.195312 -0.035156,-4.492187 1.179688,-1.519532 2.84375,-2.019532 4.335938,-1.03125 z m 0,0"
           id="path154" />
      </g>
    </g>
  </g>
  <g
     fill="#ff00ff"
     fill-opacity="1"
     id="g168"
     transform="matrix(1.9999998,0,0,2.0000041,15.03294,-188.68355)">
    <g
       transform="translate(71.89328,194.15282)"
       id="g166">
      <g
         id="g164">
        <path
           d="m 2.464844,-13.113281 c -2.21875,-2 -2.4882815,-4.179688 -1.042969,-5.515625 1.78125,-1.644532 3.480469,-0.410156 4.832031,1.457031 l 5.007813,6.769531 7.832031,-7.230468 -9.558594,-10.421876 c -4.128906,-4.46875 -7.875,-5.558593 -11.875,-1.863281 C -5.5,-27 -4.496094,-22.132812 -1.355469,-18.058594 l -0.4375,0.402344 -5.292969,-6.945312 -7.699218,7.109374 15.523437,16.808594 7.597657,-7.015625 z m 0,0"
           id="path162" />
      </g>
    </g>
  </g>
  <g
     fill="#ff00ff"
     fill-opacity="1"
     id="g176"
     transform="matrix(1.9999998,0,0,2.0000041,15.03294,-188.68355)">
    <g
       transform="translate(91.354084,176.2693)"
       id="g174">
      <g
         id="g172">
        <path
           d="m 9.949219,-5.78125 c 6.519531,-4.324219 9.082031,-8.992188 6.523437,-12.84375 -4.351562,-6.554688 -15.160156,2.980469 -15.941406,1.796875 -0.4570312,-0.6875 0.597656,-1.496094 2.503906,-2.761719 2.859375,-1.898437 6.160156,-2.882812 8.230469,-2.992187 L 5.902344,-30.5 c -3.050782,0.871094 -5.9726565,2.261719 -8.601563,4.007812 -6.519531,4.328126 -8.636719,8.75 -6.382812,12.144532 4.476562,6.75 14.828125,-3.472656 15.816406,-1.984375 0.53125,0.800781 -0.585937,1.597656 -2.796875,3.066406 -2.25,1.492187 -6.355469,3.171875 -9.882812,3.644531 l 5.792968,8.730469 C 2.605469,-1.785156 7.507812,-4.160156 9.949219,-5.78125 Z m 0,0"
           id="path170" />
      </g>
    </g>
  </g>
  <g
     fill="#ff00ff"
     fill-opacity="1"
     id="g184"
     transform="matrix(1.9999998,0,0,2.0000041,15.03294,-188.68355)">
    <g
       transform="translate(111.1887,162.88373)"
       id="g182">
      <g
         id="g180">
        <path
           d="m 7.792969,-2.757812 c 3.171875,-1.425782 5.378906,-5.332032 3.792969,-9.183594 l 0.667968,-0.300782 1.722656,5.949219 11.308594,-5.09375 -3.945312,-8.761719 -2.710938,1.222657 -0.570312,-2.605469 c -1.507813,-7.25 -9.125,-8.335938 -17.59375,-4.523438 -3.046875,1.371094 -5.570313,3.011719 -7.804688,5.070313 l 3.699219,8.21875 c 1.421875,-1.742187 3.64453125,-3.496094 5.816406,-4.472656 3.628907,-1.636719 7.152344,-1.164063 8.015625,0.753906 l 0.226563,0.5 -0.582031,0.265625 c -1.171876,-1.480469 -3.9375,-1.941406 -7.234376,-0.457031 -4.714843,2.121093 -6.660156,6.160156 -4.875,10.125 1.992188,4.421875 5.519532,5.34375 10.066407,3.292969 z m 1.25,-9.144532 c -1.792969,0.808594 -3.066407,0.878906 -3.367188,0.210938 -0.320312,-0.707032 0.597657,-1.570313 2.390625,-2.378906 1.796875,-0.808594 3.089844,-0.941407 3.410156,-0.230469 0.300782,0.667969 -0.636718,1.589843 -2.433593,2.398437 z m 0,0"
           id="path178" />
      </g>
    </g>
  </g>
  <g
     fill="#ff00ff"
     fill-opacity="1"
     id="g192"
     transform="matrix(1.9999998,0,0,2.0000041,15.03294,-188.68355)">
    <g
       transform="translate(136.55007,151.77778)"
       id="g190">
      <g
         id="g188">
        <path
           d="m 12.699219,-2.851562 c 2.113281,-0.59375 4.136719,-1.683594 5.582031,-2.804688 l -2.660156,-9.472656 c -0.914063,0.640625 -1.890625,1.054687 -2.683594,1.277344 -2.203125,0.617187 -3.035156,-0.144532 -3.269531,-0.980469 l -0.1875,-0.664063 5.816406,-1.632812 -2.84375,-10.132813 -5.816406,1.632813 L 4.707031,-32.5 l -6.035156,1.695312 c 1.175781,4.183594 0.386719,7.304688 -4.679687,8.726563 l 2.84375,10.132813 3.4375,-0.964844 1.632812,5.816406 c 0.777344,2.773438 2.90625,6.457031 10.792969,4.242188 z m 0,0"
           id="path186" />
      </g>
    </g>
  </g>
  <g
     fill="#ff00ff"
     fill-opacity="1"
     id="g200"
     transform="matrix(1.9999998,0,0,2.0000041,15.03294,-188.68355)">
    <g
       transform="translate(155.90349,146.51173)"
       id="g198">
      <g
         id="g196">
        <path
           d="m 4.023438,-25.003906 c 3.746093,-0.613282 5.425781,-2.832032 4.988281,-5.496094 -0.429688,-2.621094 -2.71875,-4.148438 -6.464844,-3.535156 -3.703125,0.605468 -5.433594,2.792968 -5.003906,5.410156 0.433593,2.664062 2.777343,4.230469 6.480469,3.621094 z M 13.636719,-2.230469 9.941406,-24.8125 -3.425781,-22.625 -1.722656,-12.238281 2.203125,-12.878906 4.199219,-0.6875 Z m 0,0"
           id="path194" />
      </g>
    </g>
  </g>
  <g
     fill="#ff00ff"
     fill-opacity="1"
     id="g208"
     transform="matrix(1.9999998,0,0,2.0000041,15.03294,-188.68355)">
    <g
       transform="translate(170.3749,143.7167)"
       id="g206">
      <g
         id="g204">
        <path
           d="m 13.652344,0.292969 c 8.230468,-0.2343752 13.042968,-4.90625 12.824218,-12.5 C 26.257812,-19.800781 21.1875,-24.1875 12.953125,-23.949219 4.765625,-23.714844 0,-19.042969 0.21875,-11.453125 0.4375,-3.859375 5.464844,0.53125 13.652344,0.292969 Z m -0.300782,-10.335938 c -2.925781,0.082031 -4.5,-0.558593 -4.53125,-1.65625 -0.03125,-1.097656 1.5,-1.875 4.429688,-1.957031 3.019531,-0.08594 4.59375,0.597656 4.625,1.695312 0.03125,1.101563 -1.503906,1.832032 -4.523438,1.917969 z m 0,0"
           id="path202" />
      </g>
    </g>
  </g>
  <g
     fill="#ff00ff"
     fill-opacity="1"
     id="g216"
     transform="matrix(1.9999998,0,0,2.0000041,15.03294,-188.68355)">
    <g
       transform="translate(197.16404,142.91932)"
       id="g214">
      <g
         id="g212">
        <path
           d="m 11.710938,-6.398438 c 0.140624,-2.980468 1.660156,-4.570312 3.605468,-4.296874 2.402344,0.335937 2.523438,2.433593 1.933594,4.660156 L 15.179688,2.132812 25.738281,3.613281 27.75,-10.382812 C 28.597656,-16.410156 27.066406,-20 21.675781,-20.753906 c -4.261719,-0.597656 -7.390625,3.257812 -8.554687,8.269531 l -0.589844,-0.08203 2.023438,-8.496094 -10.378907,-1.457031 -3.179687,22.660156 10.242187,1.4375 z m 0,0"
           id="path210" />
      </g>
    </g>
  </g>
  <g
     fill="#ff00ff"
     fill-opacity="1"
     id="g224"
     transform="matrix(1.9999998,0,0,2.0000041,15.03294,-188.68355)">
    <g
       transform="translate(223.19833,146.47447)"
       id="g222">
      <g
         id="g220">
        <path
           d="m 7.636719,3.160156 c 3.3125,1.058594 7.5625,-0.367187 8.964843,-4.292968 l 0.695313,0.222656 -2.695313,5.578125 11.8125,3.773437 2.925782,-9.152344 -2.832032,-0.90625 1.316407,-2.316406 c 3.726562,-6.398437 -1.207031,-12.300781 -10.058594,-15.128906 -3.179687,-1.015625 -6.152344,-1.488281 -9.191406,-1.449219 l -2.746094,8.585938 c 2.226563,-0.34375 5.050781,-0.164063 7.316406,0.5625 3.792969,1.210937 6.097657,3.917969 5.457031,5.921875 l -0.167968,0.523437 -0.609375,-0.195312 c 0.121093,-1.882813 -1.628907,-4.074219 -5.070313,-5.175781 -4.925781,-1.574219 -9.074218,0.128906 -10.398437,4.269531 -1.476563,4.621093 0.53125,7.664062 5.28125,9.179687 z m 7.046875,-5.960937 c -1.875,-0.597657 -2.867188,-1.398438 -2.644532,-2.09375 0.234376,-0.742188 1.496094,-0.773438 3.367188,-0.171875 1.875,0.597656 2.925781,1.367187 2.691406,2.105468 -0.222656,0.699219 -1.539062,0.757813 -3.414062,0.160157 z m 0,0"
           id="path218" />
      </g>
    </g>
  </g>
  <g
     fill="#ff00ff"
     fill-opacity="1"
     id="g232"
     transform="matrix(1.9999998,0,0,2.0000041,15.03294,-188.68355)">
    <g
       transform="translate(249.63933,155.38322)"
       id="g230">
      <g
         id="g228">
        <path
           d="m 14.074219,-4.941406 10.507812,-18.816406 -9.867187,-4.714844 -13.804688,28.90625 12.511719,5.976562 4.535156,-9.496094 z m 0,0"
           id="path226" />
      </g>
    </g>
  </g>
  <g
     fill="#ff00ff"
     fill-opacity="1"
     id="g238"
     transform="matrix(1.9999998,0,0,2.0000041,15.03294,-188.68355)">
    <g
       transform="translate(263.92542,162.3691)"
       id="g236">
      <g
         id="g234" />
    </g>
  </g>
  <g
     fill="#ff00ff"
     fill-opacity="1"
     id="g246"
     transform="matrix(1.9999998,0,0,2.0000041,15.03294,-188.68355)">
    <g
       transform="translate(272.88663,166.77154)"
       id="g244">
      <g
         id="g242">
        <path
           d="m 15.136719,0.09375 c 1.378906,-2.582031 3.554687,-3.726562 5.5,-2.207031 3.464843,2.703125 -1.523438,9.085937 -6.644531,13.042969 l 10.421874,8.140624 C 32.46875,10.84375 34.5625,2.433594 28.683594,-2.15625 c -2.234375,-1.746094 -5.128906,-1.164062 -6.875,-0.785156 L 21.777344,-3.71875 44.492188,-5.894531 31.65625,-15.921875 20,-5.980469 19.53125,-6.347656 29.636719,-17.5 20.726562,-24.457031 1.011719,0.789062 l 9.519531,7.4375 z m 0,0"
           id="path240" />
      </g>
    </g>
  </g>
  <g
     fill="#ff00ff"
     fill-opacity="1"
     id="g254"
     transform="matrix(1.9999998,0,0,2.0000041,15.03294,-188.68355)">
    <g
       transform="translate(297.51652,186.79038)"
       id="g252">
      <g
         id="g250">
        <path
           d="m 22.917969,-10.769531 c 2.621093,2.75 5.402343,2.882812 7.355469,1.019531 1.921874,-1.832031 1.890624,-4.582031 -0.726563,-7.332031 -2.589844,-2.71875 -5.367187,-2.914063 -7.289063,-1.085938 -1.957031,1.863281 -1.925781,4.679688 0.660157,7.398438 z M 9.53125,10.007812 l 16.566406,-15.78125 -9.339844,-9.808593 -7.621093,7.257812 2.746093,2.882813 -8.949218,8.523437 z m 0,0"
           id="path248" />
      </g>
    </g>
  </g>
  <g
     fill="#ff00ff"
     fill-opacity="1"
     id="g262"
     transform="matrix(1.9999998,0,0,2.0000041,15.03294,-188.68355)">
    <g
       transform="translate(307.9867,197.08798)"
       id="g260">
      <g
         id="g258">
        <path
           d="m 4.898438,7.976562 c 2.433593,3.378907 6.84375,4.488282 11.679687,1.964844 L 16.925781,10.425781 10,13.886719 l 6.125,8.503906 25.992188,-18.71875 -6.496094,-9.023437 -13.296875,12 -0.375,-0.519532 C 26.542969,2.089844 27.121094,-2.667969 24.578125,-6.195312 21.476562,-10.503906 15.730469,-10.652344 9.605469,-6.238281 3.476562,-1.828125 1.796875,3.667969 4.898438,7.976562 Z M 15.726562,5.707031 C 14.199219,3.589844 13.828125,2.054688 14.757812,1.386719 15.683594,0.714844 17.023438,1.558594 18.546875,3.671875 20.019531,5.714844 20.472656,7.363281 19.542969,8.03125 18.613281,8.699219 17.195312,7.75 15.726562,5.707031 Z m 0,0"
           id="path256" />
      </g>
    </g>
  </g>
  <g
     fill="#ff00ff"
     fill-opacity="1"
     id="g270"
     transform="matrix(1.9999998,0,0,2.0000041,15.03294,-188.68355)">
    <g
       transform="translate(324.29183,219.95082)"
       id="g268">
      <g
         id="g266">
        <path
           d="m 4.476562,10.597656 c 3.472657,7.015625 7.777344,10.144532 11.917969,8.09375 C 23.449219,15.203125 15.355469,3.277344 16.625,2.648438 c 0.738281,-0.363282 1.410156,0.785156 2.425781,2.835937 1.519531,3.074219 2.078125,6.476563 1.925781,8.542969 L 29.511719,9.703125 C 29.03125,6.570312 28.023438,3.496094 26.621094,0.664062 23.152344,-6.347656 19.03125,-9.003906 15.378906,-7.199219 8.121094,-3.609375 16.953125,7.949219 15.351562,8.742188 14.492188,9.167969 13.839844,7.957031 12.664062,5.578125 11.46875,3.160156 10.320312,-1.121094 10.292969,-4.683594 L 0.902344,-0.0390625 C 1.441406,2.808594 3.179688,7.972656 4.476562,10.597656 Z m 0,0"
           id="path264" />
      </g>
    </g>
  </g>
  <g
     fill="#dd7f29"
     fill-opacity="1"
     id="g278"
     transform="matrix(1.9999998,0,0,2.0000041,15.03294,-188.68355)">
    <g
       transform="translate(40.729591,242.03402)"
       id="g276">
      <g
         id="g274">
        <path
           d="m 8.097656,-13.992188 c 4.328125,-8.273437 4.167969,-15.070312 -1.628906,-18.105468 -9.851562,-5.15625 -14.554688,14.386718 -17.433594,12.878906 -0.726562,-0.382812 -0.09766,-2.375 1.28125,-5.011719 1.953125,-3.730469 5.066406,-7.210937 8.234375,-9.117187 l -11.019531,-7.472656 c -2.984375,2.15625 -6.972656,7.40625 -8.902344,11.09375 -4.09375,7.824218 -4.675781,14.855468 1.203125,17.933593 10.21875,5.34375 15.257813,-13.863281 17.976563,-12.441406 0.6875,0.359375 0.0625,2.046875 -1.316406,4.683594 -2.671876,5.109375 -6.722657,9.394531 -10.703126,11.078125 l 13.054688,6.835937 c 3.179688,-2.726562 7.367188,-8.75 9.253906,-12.355469 z m 0,0"
           id="path272" />
      </g>
    </g>
  </g>
  <g
     fill="#dd7f29"
     fill-opacity="1"
     id="g286"
     transform="matrix(1.9999998,0,0,2.0000041,15.03294,-188.68355)">
    <g
       transform="translate(55.571833,214.14986)"
       id="g284">
      <g
         id="g282">
        <path
           d="m 9.3125,-10.84375 c 2.304688,-2.960938 3.960938,-6.429688 4.523438,-8.714844 l -7.101563,-5.179687 c -0.492187,2.34375 -1.4375,4.449219 -3.460937,7.046875 -2.050782,2.636718 -4.328126,4.519531 -5.429688,3.777344 L 7.257812,-26.011719 C 7.0625,-26.28125 6.679688,-26.753906 5.917969,-27.34375 c -5.488281,-4.273438 -11.695313,-3.597656 -16.476563,2.539062 -4.636718,5.957032 -4.125,12.675782 1.796875,17.289063 C -2.875,-2.933594 3.859375,-3.839844 9.3125,-10.84375 Z m -12.871094,-4.105469 c -1.335937,-1.558593 -1.050781,-3.195312 -0.035156,-4.492187 1.179688,-1.519532 2.84375,-2.019532 4.335938,-1.03125 z m 0,0"
           id="path280" />
      </g>
    </g>
  </g>
  <g
     fill="#dd7f29"
     fill-opacity="1"
     id="g294"
     transform="matrix(1.9999998,0,0,2.0000041,15.03294,-188.68355)">
    <g
       transform="translate(71.035134,194.15282)"
       id="g292">
      <g
         id="g290">
        <path
           d="m 2.464844,-13.113281 c -2.21875,-2 -2.4882815,-4.179688 -1.042969,-5.515625 1.78125,-1.644532 3.480469,-0.410156 4.832031,1.457031 l 5.007813,6.769531 7.832031,-7.230468 -9.558594,-10.421876 c -4.128906,-4.46875 -7.875,-5.558593 -11.875,-1.863281 C -5.5,-27 -4.496094,-22.132812 -1.355469,-18.058594 l -0.4375,0.402344 -5.292969,-6.945312 -7.699218,7.109374 15.523437,16.808594 7.597657,-7.015625 z m 0,0"
           id="path288" />
      </g>
    </g>
  </g>
  <g
     fill="#dd7f29"
     fill-opacity="1"
     id="g302"
     transform="matrix(1.9999998,0,0,2.0000041,15.03294,-188.68355)">
    <g
       transform="translate(90.495942,176.2693)"
       id="g300">
      <g
         id="g298">
        <path
           d="m 9.949219,-5.78125 c 6.519531,-4.324219 9.082031,-8.992188 6.523437,-12.84375 -4.351562,-6.554688 -15.160156,2.980469 -15.941406,1.796875 -0.4570312,-0.6875 0.597656,-1.496094 2.503906,-2.761719 2.859375,-1.898437 6.160156,-2.882812 8.230469,-2.992187 L 5.902344,-30.5 c -3.050782,0.871094 -5.9726565,2.261719 -8.601563,4.007812 -6.519531,4.328126 -8.636719,8.75 -6.382812,12.144532 4.476562,6.75 14.828125,-3.472656 15.816406,-1.984375 0.53125,0.800781 -0.585937,1.597656 -2.796875,3.066406 -2.25,1.492187 -6.355469,3.171875 -9.882812,3.644531 l 5.792968,8.730469 C 2.605469,-1.785156 7.507812,-4.160156 9.949219,-5.78125 Z m 0,0"
           id="path296" />
      </g>
    </g>
  </g>
  <g
     fill="#dd7f29"
     fill-opacity="1"
     id="g310"
     transform="matrix(1.9999998,0,0,2.0000041,15.03294,-188.68355)">
    <g
       transform="translate(110.33055,162.88373)"
       id="g308">
      <g
         id="g306">
        <path
           d="m 7.792969,-2.757812 c 3.171875,-1.425782 5.378906,-5.332032 3.792969,-9.183594 l 0.667968,-0.300782 1.722656,5.949219 11.308594,-5.09375 -3.945312,-8.761719 -2.710938,1.222657 -0.570312,-2.605469 c -1.507813,-7.25 -9.125,-8.335938 -17.59375,-4.523438 -3.046875,1.371094 -5.570313,3.011719 -7.804688,5.070313 l 3.699219,8.21875 c 1.421875,-1.742187 3.64453125,-3.496094 5.816406,-4.472656 3.628907,-1.636719 7.152344,-1.164063 8.015625,0.753906 l 0.226563,0.5 -0.582031,0.265625 c -1.171876,-1.480469 -3.9375,-1.941406 -7.234376,-0.457031 -4.714843,2.121093 -6.660156,6.160156 -4.875,10.125 1.992188,4.421875 5.519532,5.34375 10.066407,3.292969 z m 1.25,-9.144532 c -1.792969,0.808594 -3.066407,0.878906 -3.367188,0.210938 -0.320312,-0.707032 0.597657,-1.570313 2.390625,-2.378906 1.796875,-0.808594 3.089844,-0.941407 3.410156,-0.230469 0.300782,0.667969 -0.636718,1.589843 -2.433593,2.398437 z m 0,0"
           id="path304" />
      </g>
    </g>
  </g>
  <g
     fill="#dd7f29"
     fill-opacity="1"
     id="g318"
     transform="matrix(1.9999998,0,0,2.0000041,15.03294,-188.68355)">
    <g
       transform="translate(135.69192,151.77778)"
       id="g316">
      <g
         id="g314">
        <path
           d="m 12.699219,-2.851562 c 2.113281,-0.59375 4.136719,-1.683594 5.582031,-2.804688 l -2.660156,-9.472656 c -0.914063,0.640625 -1.890625,1.054687 -2.683594,1.277344 -2.203125,0.617187 -3.035156,-0.144532 -3.269531,-0.980469 l -0.1875,-0.664063 5.816406,-1.632812 -2.84375,-10.132813 -5.816406,1.632813 L 4.707031,-32.5 l -6.035156,1.695312 c 1.175781,4.183594 0.386719,7.304688 -4.679687,8.726563 l 2.84375,10.132813 3.4375,-0.964844 1.632812,5.816406 c 0.777344,2.773438 2.90625,6.457031 10.792969,4.242188 z m 0,0"
           id="path312" />
      </g>
    </g>
  </g>
  <g
     fill="#dd7f29"
     fill-opacity="1"
     id="g326"
     transform="matrix(1.9999998,0,0,2.0000041,15.03294,-188.68355)">
    <g
       transform="translate(155.04536,146.51173)"
       id="g324">
      <g
         id="g322">
        <path
           d="m 4.023438,-25.003906 c 3.746093,-0.613282 5.425781,-2.832032 4.988281,-5.496094 -0.429688,-2.621094 -2.71875,-4.148438 -6.464844,-3.535156 -3.703125,0.605468 -5.433594,2.792968 -5.003906,5.410156 0.433593,2.664062 2.777343,4.230469 6.480469,3.621094 z M 13.636719,-2.230469 9.941406,-24.8125 -3.425781,-22.625 -1.722656,-12.238281 2.203125,-12.878906 4.199219,-0.6875 Z m 0,0"
           id="path320" />
      </g>
    </g>
  </g>
  <g
     fill="#dd7f29"
     fill-opacity="1"
     id="g334"
     transform="matrix(1.9999998,0,0,2.0000041,15.03294,-188.68355)">
    <g
       transform="translate(169.51675,143.7167)"
       id="g332">
      <g
         id="g330">
        <path
           d="m 13.652344,0.292969 c 8.230468,-0.2343752 13.042968,-4.90625 12.824218,-12.5 C 26.257812,-19.800781 21.1875,-24.1875 12.953125,-23.949219 4.765625,-23.714844 0,-19.042969 0.21875,-11.453125 0.4375,-3.859375 5.464844,0.53125 13.652344,0.292969 Z m -0.300782,-10.335938 c -2.925781,0.082031 -4.5,-0.558593 -4.53125,-1.65625 -0.03125,-1.097656 1.5,-1.875 4.429688,-1.957031 3.019531,-0.08594 4.59375,0.597656 4.625,1.695312 0.03125,1.101563 -1.503906,1.832032 -4.523438,1.917969 z m 0,0"
           id="path328" />
      </g>
    </g>
  </g>
  <g
     fill="#dd7f29"
     fill-opacity="1"
     id="g342"
     transform="matrix(1.9999998,0,0,2.0000041,15.03294,-188.68355)">
    <g
       transform="translate(196.30589,142.91932)"
       id="g340">
      <g
         id="g338">
        <path
           d="m 11.710938,-6.398438 c 0.140624,-2.980468 1.660156,-4.570312 3.605468,-4.296874 2.402344,0.335937 2.523438,2.433593 1.933594,4.660156 L 15.179688,2.132812 25.738281,3.613281 27.75,-10.382812 C 28.597656,-16.410156 27.066406,-20 21.675781,-20.753906 c -4.261719,-0.597656 -7.390625,3.257812 -8.554687,8.269531 l -0.589844,-0.08203 2.023438,-8.496094 -10.378907,-1.457031 -3.179687,22.660156 10.242187,1.4375 z m 0,0"
           id="path336" />
      </g>
    </g>
  </g>
  <g
     fill="#dd7f29"
     fill-opacity="1"
     id="g350"
     transform="matrix(1.9999998,0,0,2.0000041,15.03294,-188.68355)">
    <g
       transform="translate(222.34018,146.47447)"
       id="g348">
      <g
         id="g346">
        <path
           d="m 7.636719,3.160156 c 3.3125,1.058594 7.5625,-0.367187 8.964843,-4.292968 l 0.695313,0.222656 -2.695313,5.578125 11.8125,3.773437 2.925782,-9.152344 -2.832032,-0.90625 1.316407,-2.316406 c 3.726562,-6.398437 -1.207031,-12.300781 -10.058594,-15.128906 -3.179687,-1.015625 -6.152344,-1.488281 -9.191406,-1.449219 l -2.746094,8.585938 c 2.226563,-0.34375 5.050781,-0.164063 7.316406,0.5625 3.792969,1.210937 6.097657,3.917969 5.457031,5.921875 l -0.167968,0.523437 -0.609375,-0.195312 c 0.121093,-1.882813 -1.628907,-4.074219 -5.070313,-5.175781 -4.925781,-1.574219 -9.074218,0.128906 -10.398437,4.269531 -1.476563,4.621093 0.53125,7.664062 5.28125,9.179687 z m 7.046875,-5.960937 c -1.875,-0.597657 -2.867188,-1.398438 -2.644532,-2.09375 0.234376,-0.742188 1.496094,-0.773438 3.367188,-0.171875 1.875,0.597656 2.925781,1.367187 2.691406,2.105468 -0.222656,0.699219 -1.539062,0.757813 -3.414062,0.160157 z m 0,0"
           id="path344" />
      </g>
    </g>
  </g>
  <g
     fill="#dd7f29"
     fill-opacity="1"
     id="g358"
     transform="matrix(1.9999998,0,0,2.0000041,15.03294,-188.68355)">
    <g
       transform="translate(248.7812,155.38322)"
       id="g356">
      <g
         id="g354">
        <path
           d="m 14.074219,-4.941406 10.507812,-18.816406 -9.867187,-4.714844 -13.804688,28.90625 12.511719,5.976562 4.535156,-9.496094 z m 0,0"
           id="path352" />
      </g>
    </g>
  </g>
  <g
     fill="#dd7f29"
     fill-opacity="1"
     id="g364"
     transform="matrix(1.9999998,0,0,2.0000041,15.03294,-188.68355)">
    <g
       transform="translate(263.06725,162.3691)"
       id="g362">
      <g
         id="g360" />
    </g>
  </g>
  <g
     fill="#dd7f29"
     fill-opacity="1"
     id="g372"
     transform="matrix(1.9999998,0,0,2.0000041,15.03294,-188.68355)">
    <g
       transform="translate(272.02847,166.77154)"
       id="g370">
      <g
         id="g368">
        <path
           d="m 15.136719,0.09375 c 1.378906,-2.582031 3.554687,-3.726562 5.5,-2.207031 3.464843,2.703125 -1.523438,9.085937 -6.644531,13.042969 l 10.421874,8.140624 C 32.46875,10.84375 34.5625,2.433594 28.683594,-2.15625 c -2.234375,-1.746094 -5.128906,-1.164062 -6.875,-0.785156 L 21.777344,-3.71875 44.492188,-5.894531 31.65625,-15.921875 20,-5.980469 19.53125,-6.347656 29.636719,-17.5 20.726562,-24.457031 1.011719,0.789062 l 9.519531,7.4375 z m 0,0"
           id="path366" />
      </g>
    </g>
  </g>
  <g
     fill="#dd7f29"
     fill-opacity="1"
     id="g380"
     transform="matrix(1.9999998,0,0,2.0000041,15.03294,-188.68355)">
    <g
       transform="translate(296.65838,186.79038)"
       id="g378">
      <g
         id="g376">
        <path
           d="m 22.917969,-10.769531 c 2.621093,2.75 5.402343,2.882812 7.355469,1.019531 1.921874,-1.832031 1.890624,-4.582031 -0.726563,-7.332031 -2.589844,-2.71875 -5.367187,-2.914063 -7.289063,-1.085938 -1.957031,1.863281 -1.925781,4.679688 0.660157,7.398438 z M 9.53125,10.007812 l 16.566406,-15.78125 -9.339844,-9.808593 -7.621093,7.257812 2.746093,2.882813 -8.949218,8.523437 z m 0,0"
           id="path374" />
      </g>
    </g>
  </g>
  <g
     fill="#dd7f29"
     fill-opacity="1"
     id="g388"
     transform="matrix(1.9999998,0,0,2.0000041,15.03294,-188.68355)">
    <g
       transform="translate(307.12856,197.08798)"
       id="g386">
      <g
         id="g384">
        <path
           d="m 4.898438,7.976562 c 2.433593,3.378907 6.84375,4.488282 11.679687,1.964844 L 16.925781,10.425781 10,13.886719 l 6.125,8.503906 25.992188,-18.71875 -6.496094,-9.023437 -13.296875,12 -0.375,-0.519532 C 26.542969,2.089844 27.121094,-2.667969 24.578125,-6.195312 21.476562,-10.503906 15.730469,-10.652344 9.605469,-6.238281 3.476562,-1.828125 1.796875,3.667969 4.898438,7.976562 Z M 15.726562,5.707031 C 14.199219,3.589844 13.828125,2.054688 14.757812,1.386719 15.683594,0.714844 17.023438,1.558594 18.546875,3.671875 20.019531,5.714844 20.472656,7.363281 19.542969,8.03125 18.613281,8.699219 17.195312,7.75 15.726562,5.707031 Z m 0,0"
           id="path382" />
      </g>
    </g>
  </g>
  <g
     fill="#dd7f29"
     fill-opacity="1"
     id="g396"
     transform="matrix(1.9999998,0,0,2.0000041,15.03294,-188.68355)">
    <g
       transform="translate(323.43369,219.95082)"
       id="g394">
      <g
         id="g392">
        <path
           d="m 4.476562,10.597656 c 3.472657,7.015625 7.777344,10.144532 11.917969,8.09375 C 23.449219,15.203125 15.355469,3.277344 16.625,2.648438 c 0.738281,-0.363282 1.410156,0.785156 2.425781,2.835937 1.519531,3.074219 2.078125,6.476563 1.925781,8.542969 L 29.511719,9.703125 C 29.03125,6.570312 28.023438,3.496094 26.621094,0.664062 23.152344,-6.347656 19.03125,-9.003906 15.378906,-7.199219 8.121094,-3.609375 16.953125,7.949219 15.351562,8.742188 14.492188,9.167969 13.839844,7.957031 12.664062,5.578125 11.46875,3.160156 10.320312,-1.121094 10.292969,-4.683594 L 0.902344,-0.0390625 C 1.441406,2.808594 3.179688,7.972656 4.476562,10.597656 Z m 0,0"
           id="path390" />
      </g>
    </g>
  </g>
</svg>
