<?xml version="1.0" encoding="UTF-8" standalone="no"?>
<svg
   width="700"
   zoomAndPan="magnify"
   viewBox="0 0 525 299.99998"
   height="400"
   preserveAspectRatio="xMidYMid"
   version="1.0"
   id="svg398"
   sodipodi:docname="Sensational-kids-icon.svg"
   inkscape:version="1.2.2 (732a01da63, 2022-12-09)"
   xmlns:inkscape="http://www.inkscape.org/namespaces/inkscape"
   xmlns:sodipodi="http://sodipodi.sourceforge.net/DTD/sodipodi-0.dtd"
   xmlns="http://www.w3.org/2000/svg"
   xmlns:svg="http://www.w3.org/2000/svg">
  <sodipodi:namedview
     id="namedview400"
     pagecolor="#ffffff"
     bordercolor="#000000"
     borderopacity="0.25"
     inkscape:showpageshadow="2"
     inkscape:pageopacity="0.0"
     inkscape:pagecheckerboard="0"
     inkscape:deskcolor="#d1d1d1"
     showgrid="false"
     inkscape:zoom="1.034"
     inkscape:cx="264.02321"
     inkscape:cy="179.88395"
     inkscape:window-width="1366"
     inkscape:window-height="697"
     inkscape:window-x="-8"
     inkscape:window-y="-8"
     inkscape:window-maximized="1"
     inkscape:current-layer="svg398" />
  <defs
     id="defs10">
    <g
       id="g2" />
    <clipPath
       id="1ccd6004d2">
      <path
         d="M 76.753906,156.88672 H 299.50391 v 111.75 H 76.753906 Z m 0,0"
         clip-rule="nonzero"
         id="path4" />
    </clipPath>
    <clipPath
       id="b9bb596a78">
      <path
         d="m 163,244 h 50 v 24.63672 h -50 z m 0,0"
         clip-rule="nonzero"
         id="path7" />
    </clipPath>
  </defs>
  <g
     clip-path="url(#1ccd6004d2)"
     id="g14"
     transform="matrix(1.9999974,0,0,1.9999999,-113.99974,-270.00043)">
    <path
       fill="#f3e198"
       d="m 164.69531,268.41406 c 0.0234,-3.07812 0.64063,-6.00781 1.75391,-8.6914 l -83.523439,-28.35938 5.246094,-12.44141 78.476565,40.35157 c 1.14062,-2.65625 2.77343,-5.03907 4.7539,-7.07422 l -66.77343,-57.8125 9.52734,-9.5625 57.58984,67 c 2.10547,-2.0586 4.60547,-3.75 7.375,-4.91406 l -39.125,-79.26954 12.47266,-5.08984 27.05078,84.20703 c 2.59766,-1.01562 5.39453,-1.61328 8.36328,-1.63672 l -6.48437,-88.23437 h 13.46484 l -6.50781,88.23437 c 3.0664,0.0234 5.98828,0.64453 8.66015,1.76172 l 28.26172,-83.8125 12.39844,5.26563 -40.21484,78.72265 c 2.64843,1.14063 5.02343,2.78125 7.05468,4.76563 l 57.61329,-66.97266 9.52734,9.5586 -66.79688,57.76171 c 2.05469,2.11329 3.73829,4.6211 4.90235,7.40235 l 79.02344,-39.23828 5.07031,12.51562 -83.92188,27.16797 c 1.01563,2.60938 1.60938,5.41406 1.63282,8.39453 L 299.5,261.88281 v 6.75391 H 76.761719 v -6.75391 z m 0,0"
       fill-opacity="1"
       fill-rule="nonzero"
       id="path12" />
  </g>
  <g
     clip-path="url(#b9bb596a78)"
     id="g18"
     transform="matrix(1.9999974,0,0,1.9999999,-113.99974,-270.00043)">
    <path
       fill="#fcc22d"
       d="m 212.48437,268.63672 h -48.70703 c 0,-13.48438 10.91407,-24.4336 24.35157,-24.4336 13.4414,0 24.35546,10.94922 24.35546,24.4336 z m 0,0"
       fill-opacity="1"
       fill-rule="nonzero"
       id="path16" />
  </g>
</svg>
